#define icon_width 120
#define icon_height 28
static uint8_t icon_bits[] = {
 	0x00, 0x00, 0x00, 0x00, 0x00, 0x00, 0x00, 0x00, 0x00, 0x00, 0x00, 0x00, 0x00, 0x00, 0x00, 0x00, 
	0x06, 0x00, 0x00, 0x00, 0x00, 0x00, 0x00, 0x00, 0x00, 0x00, 0x00, 0x00, 0x00, 0x00, 0x00, 0x0f, 
	0x00, 0x00, 0x00, 0x00, 0x00, 0x00, 0x00, 0x00, 0x00, 0x00, 0x00, 0x00, 0x00, 0x80, 0x1f, 0x00, 
	0x00, 0x00, 0x00, 0x00, 0x00, 0x00, 0x00, 0x00, 0x00, 0x00, 0x00, 0x30, 0xc0, 0x3f, 0x00, 0x00, 
	0x00, 0x00, 0x00, 0x00, 0x00, 0x00, 0x00, 0x00, 0x00, 0x00, 0x30, 0xc0, 0x7f, 0x00, 0x00, 0x00, 
	0x00, 0x00, 0x00, 0x00, 0x00, 0x00, 0x00, 0x00, 0x00, 0x00, 0x80, 0xff, 0x00, 0x00, 0x00, 0x00, 
	0x00, 0x00, 0x00, 0x00, 0x00, 0x00, 0x00, 0x00, 0x00, 0x30, 0xff, 0x01, 0x00, 0x00, 0x00, 0x00, 
	0x00, 0x00, 0x00, 0x00, 0x00, 0x00, 0x00, 0x00, 0x78, 0xf6, 0x03, 0x7e, 0xc0, 0x1f, 0x98, 0x1f, 
	0xf8, 0x01, 0x7f, 0x60, 0x3f, 0x7c, 0x30, 0xfc, 0xe0, 0x01, 0xff, 0xe1, 0x3f, 0xf8, 0x1f, 0xfc, 
	0x87, 0xff, 0xe0, 0x7f, 0xff, 0x30, 0xf8, 0xc1, 0x00, 0x83, 0x71, 0x60, 0x78, 0x30, 0x0c, 0xc6, 
	0x81, 0xe1, 0xe1, 0xc3, 0x31, 0xf0, 0x03, 0x80, 0x01, 0x18, 0xc0, 0x18, 0x60, 0x06, 0x60, 0x00, 
	0x63, 0xc0, 0x01, 0x31, 0xe0, 0x07, 0x80, 0x01, 0x18, 0xc0, 0x19, 0x60, 0x06, 0x60, 0x00, 0x67, 
	0xc0, 0x00, 0x31, 0xc0, 0x0f, 0x80, 0x03, 0x18, 0x80, 0x19, 0x60, 0x0e, 0x60, 0x00, 0x66, 0x80, 
	0x00, 0x31, 0x80, 0x1f, 0x00, 0x1e, 0x1c, 0x80, 0x19, 0x60, 0x78, 0x70, 0x00, 0x66, 0x80, 0x00, 
	0x31, 0x00, 0x3f, 0x00, 0x78, 0xfc, 0xff, 0x19, 0x60, 0xe0, 0xf1, 0xff, 0x67, 0x80, 0x00, 0x31, 
	0x00, 0x7e, 0x00, 0xe0, 0xfd, 0xff, 0x19, 0x60, 0x80, 0xf7, 0xff, 0x65, 0x80, 0x00, 0x31, 0x08, 
	0xfc, 0x00, 0x80, 0x1b, 0x00, 0x18, 0x60, 0x00, 0x6e, 0x00, 0x60, 0x80, 0x00, 0x31, 0x1c, 0xf8, 
	0x01, 0x00, 0x1b, 0x00, 0x18, 0x60, 0x00, 0x6c, 0x00, 0x60, 0x80, 0x00, 0x31, 0x3e, 0xf1, 0x81, 
	0x01, 0x1b, 0xc0, 0x18, 0x60, 0x06, 0x6c, 0x00, 0x63, 0x80, 0x00, 0x31, 0xfc, 0xe3, 0x80, 0x83, 
	0x73, 0xe0, 0x18, 0x60, 0x0e, 0xce, 0x81, 0x63, 0x80, 0x00, 0x31, 0xf8, 0x47, 0x00, 0xff, 0xe1, 
	0x3f, 0x18, 0x60, 0xfc, 0x87, 0xff, 0x60, 0x80, 0x00, 0x31, 0xf0, 0x0f, 0x00, 0xfe, 0x80, 0x1f, 
	0x18, 0x60, 0xf8, 0x03, 0x7e, 0x60, 0x80, 0x00, 0x01, 0xe0, 0x1f, 0x00, 0x00, 0x00, 0x00, 0x00, 
	0x00, 0x00, 0x00, 0x00, 0x00, 0x00, 0x00, 0x00, 0xc0, 0x0f, 0x00, 0x00, 0x00, 0x00, 0x00, 0x00, 
	0x00, 0x00, 0x00, 0x00, 0x00, 0x00, 0x00, 0x80, 0x07, 0x00, 0x00, 0x00, 0x00, 0x00, 0x00, 0x00, 
	0x00, 0x00, 0x00, 0x00, 0x00, 0x00, 0x00, 0x03, 0x00, 0x00, 0x00, 0x00, 0x00, 0x00, 0x00, 0x00, 
	0x00, 0x00, 0x00, 0x00, 0x00, 0x00, 0x00, 0x00, 0x00, 0x00, 0x00, 0x00, 0x00, 0x00, 0x00, 0x00, 
	0x00, 0x00, 0x00, 0x00 };